HIERARCHY
ROOT Hips
{
	OFFSET 0.000000 0.000000 0.000000
	CHANNELS 6 Xposition Yposition Zposition Zrotation Yrotation Xrotation 
	JOINT LHipJoint
	{
		OFFSET 0.000000 0.000000 0.000000
		CHANNELS 3 Zrotation Yrotation Xrotation
		JOINT LeftUpLeg
		{
			OFFSET 1.363060 -1.794630 0.839290
			CHANNELS 3 Zrotation Yrotation Xrotation
			JOINT LeftLeg
			{
				OFFSET 2.448110 -6.726130 0.000000
				CHANNELS 3 Zrotation Yrotation Xrotation
				JOINT LeftFoot
				{
					OFFSET 2.562200 -7.039590 0.000000
					CHANNELS 3 Zrotation Yrotation Xrotation
					JOINT LeftToeBase
					{
						OFFSET 0.157640 -0.433110 2.322550
						CHANNELS 3 Zrotation Yrotation Xrotation
						End Site
						{
							OFFSET 0.000000 0.000000 0.000000
						}
					}
				}
			}
		}
	}
	JOINT RHipJoint
	{
		OFFSET 0.000000 0.000000 0.000000
		CHANNELS 3 Zrotation Yrotation Xrotation
		JOINT RightUpLeg
		{
			OFFSET -1.305520 -1.794630 0.839290
			CHANNELS 3 Zrotation Yrotation Xrotation
			JOINT RightLeg
			{
				OFFSET -2.542530 -6.985550 0.000000
				CHANNELS 3 Zrotation Yrotation Xrotation
				JOINT RightFoot
				{
					OFFSET -2.568260 -7.056230 0.000000
					CHANNELS 3 Zrotation Yrotation Xrotation
					JOINT RightToeBase
					{
						OFFSET -0.164730 -0.452590 2.363150
						CHANNELS 3 Zrotation Yrotation Xrotation
						End Site
						{
							OFFSET 0.000000 0.000000 0.000000
						}
					}
				}
			}
		}
	}
	JOINT LowerBack
	{
		OFFSET 0.000000 0.000000 0.000000
		CHANNELS 3 Zrotation Yrotation Xrotation
		JOINT Spine
		{
			OFFSET 0.028270 2.035590 -0.193380
			CHANNELS 3 Zrotation Yrotation Xrotation
			JOINT Spine1
			{
				OFFSET 0.056720 2.048850 -0.042750
				CHANNELS 3 Zrotation Yrotation Xrotation
				JOINT Neck
				{
					OFFSET 0.000000 0.000000 0.000000
					CHANNELS 3 Zrotation Yrotation Xrotation
					JOINT Neck1
					{
						OFFSET -0.054170 1.746240 0.172020
						CHANNELS 3 Zrotation Yrotation Xrotation
						JOINT Head
						{
							OFFSET 0.104070 1.761360 -0.123970
							CHANNELS 3 Zrotation Yrotation Xrotation
							End Site
							{
								OFFSET 0.000000 0.000000 0.000000
							}
						}
					}
				}
				JOINT LeftShoulder
				{
					OFFSET 0.000000 0.000000 0.000000
					CHANNELS 3 Zrotation Yrotation Xrotation
					JOINT LeftArm
					{
						OFFSET 3.362410 1.200890 -0.311210
						CHANNELS 3 Zrotation Yrotation Xrotation
						JOINT LeftForeArm
						{
							OFFSET 4.983000 -0.000000 -0.000000
							CHANNELS 3 Zrotation Yrotation Xrotation
							JOINT LeftHand
							{
								OFFSET 3.483560 -0.000000 -0.000000
								CHANNELS 3 Zrotation Yrotation Xrotation
								JOINT LeftFingerBase
								{
									OFFSET 0.000000 0.000000 0.000000
									CHANNELS 3 Zrotation Yrotation Xrotation
									JOINT LeftHandIndex1
									{
										OFFSET 0.715260 -0.000000 -0.000000
										CHANNELS 3 Zrotation Yrotation Xrotation
										End Site
										{
											OFFSET 0.000000 0.000000 0.000000
										}
									}
								}
								JOINT LThumb
								{
									OFFSET 0.000000 0.000000 0.000000
									CHANNELS 3 Zrotation Yrotation Xrotation
									End Site
									{
										OFFSET 0.000000 0.000000 0.000000
									}
								}
							}
						}
					}
				}
				JOINT RightShoulder
				{
					OFFSET 0.000000 0.000000 0.000000
					CHANNELS 3 Zrotation Yrotation Xrotation
					JOINT RightArm
					{
						OFFSET -3.136600 1.374050 -0.404650
						CHANNELS 3 Zrotation Yrotation Xrotation
						JOINT RightForeArm
						{
							OFFSET -5.241900 -0.000000 -0.000000
							CHANNELS 3 Zrotation Yrotation Xrotation
							JOINT RightHand
							{
								OFFSET -3.444170 -0.000000 -0.000000
								CHANNELS 3 Zrotation Yrotation Xrotation
								JOINT RightFingerBase
								{
									OFFSET 0.000000 0.000000 0.000000
									CHANNELS 3 Zrotation Yrotation Xrotation
									JOINT RightHandIndex1
									{
										OFFSET -0.622530 -0.000000 -0.000000
										CHANNELS 3 Zrotation Yrotation Xrotation
										End Site
										{
											OFFSET 0.000000 0.000000 0.000000
										}
									}
								}
								JOINT RThumb
								{
									OFFSET 0.000000 0.000000 0.000000
									CHANNELS 3 Zrotation Yrotation Xrotation
									End Site
									{
										OFFSET 0.000000 0.000000 0.000000
									}
								}
							}
						}
					}
				}
			}
		}
	}
}
MOTION
Frames: 6
Frame Time: 0.008333
36.513565 17.323783 0.284350 174.576585 -65.645212 -175.196011 -0.021140 0.244786 -0.191839 -16.264597 1.127069 -8.657124 0.634396 10.590399 29.713983 -2.540743 12.429288 -13.643448 0.241500 -3.162500 -8.731500 -0.649066 -0.237386 -0.419596 13.142063 0.830836 -10.268575 -1.403518 -11.008300 31.081144 5.917582 -21.817532 -11.330599 -1.566200 7.897100 -22.401900 -3.207467 0.536250 3.878321 0.408892 0.655393 -2.258357 3.749447 -0.158822 5.723817 -10.709218 -3.797447 -2.624967 4.289071 -5.522836 5.993575 7.773700 -1.612000 -2.741600 0.374593 1.290331 2.053545 -92.410198 -3.480286 16.457636 4.174693 -18.751379 -1.706373 -0.648096 -0.303908 8.053932 16.797533 21.906911 6.763300 -7.125000 0.000000 0.000000 -11.876300 52.789000 -2.302300 -2.735893 -0.696073 1.606772 86.997800 2.002908 11.218712 -9.053953 22.823590 -3.292884 0.214696 -1.215631 13.961566 -17.091304 24.200814 -7.720700 7.125000 0.000000 0.000000 7.302600 -3.781600 6.862000 
36.512223 17.321323 0.279654 174.585971 -65.537098 -175.285162 -0.014805 0.258909 -0.178065 -16.254744 1.283433 -8.606308 0.641147 10.586381 29.726510 -2.491497 12.288205 -13.712265 0.221800 -3.031900 -8.367600 -0.660592 -0.246069 -0.413607 13.129898 0.681226 -10.276254 -1.406662 -11.017642 31.143397 5.742283 -21.297239 -11.354507 -1.490700 7.713200 -21.846300 -3.270438 0.575185 4.036218 0.411975 0.703740 -2.265254 3.812981 -0.144270 5.647772 -10.606613 -3.737911 -2.719436 4.222035 -5.404614 6.057541 7.653200 -1.574300 -2.666200 0.413470 1.261299 2.032467 -92.451606 -3.367874 16.426795 4.227857 -18.846396 -1.728286 -0.651148 -0.298601 8.322869 16.689932 22.147719 6.787600 -7.125000 0.000000 0.000000 -12.080200 53.008400 -2.408100 -2.707541 -0.670088 1.585646 86.964115 1.982167 11.253139 -9.076625 22.820656 -3.295210 0.218657 -1.210901 13.841581 -17.080005 24.087958 -7.682700 7.125000 0.000000 0.000000 7.299700 -3.902500 6.842700 
36.509428 17.318304 0.274175 174.912106 -65.439937 -175.621603 0.003114 0.259949 -0.183701 -16.129919 1.369607 -8.550976 0.652534 10.587426 29.766748 -2.423742 12.114537 -13.915219 0.185300 -2.772300 -7.645300 -0.661478 -0.248600 -0.421037 13.257724 0.605488 -10.283637 -1.401861 -11.039738 31.212132 5.578951 -20.840310 -11.458065 -1.415000 7.523300 -21.275300 -3.017544 0.661416 4.021955 0.385035 0.803979 -2.247355 3.450436 -0.077325 5.790680 -10.316898 -3.653235 -2.904917 4.243549 -5.284318 6.114879 7.613800 -1.533800 -2.604200 0.362005 1.284445 2.024909 -92.150696 -3.438415 16.551784 4.269131 -18.834951 -1.725629 -0.654895 -0.327663 8.417924 16.600171 22.251475 6.788000 -7.125000 0.000000 0.000000 -12.227900 53.127200 -2.474000 -2.734527 -0.696397 1.581303 87.296761 2.145381 11.080438 -9.034561 22.784980 -3.281291 0.220851 -1.207191 13.903584 -17.193040 23.950957 -7.695600 7.125000 0.000000 0.000000 7.217600 -4.028800 6.747500 
36.504955 17.315508 0.268025 175.073879 -65.349596 -175.773146 0.014202 0.257598 -0.188887 -16.061882 1.447900 -8.528615 0.658293 10.585007 29.783247 -2.374950 11.984684 -14.036640 0.150200 -2.497500 -6.882700 -0.662197 -0.247996 -0.431977 13.318170 0.532843 -10.346202 -1.414415 -11.067839 31.279816 5.546769 -20.743748 -11.395402 -1.430100 7.561600 -21.390200 -2.878325 0.729218 3.968556 0.362327 0.883779 -2.232367 3.227445 -0.026005 5.955313 -10.236755 -3.461211 -3.139519 4.288728 -5.023029 6.255662 7.650100 -1.425900 -2.489800 0.295946 1.296890 2.013839 -91.872854 -3.699415 16.760757 4.230384 -18.727486 -1.705809 -0.659914 -0.357340 8.202422 16.602825 22.536119 6.878000 -7.125000 0.000000 0.000000 -12.356400 53.440000 -2.595900 -2.773958 -0.740403 1.566642 87.562447 2.313227 10.914909 -9.000092 22.754745 -3.270596 0.221400 -1.207282 13.977956 -17.287602 23.903478 -7.726100 7.125000 0.000000 0.000000 7.154700 -4.062900 6.683100 
36.503837 17.313048 0.262993 174.936381 -65.333288 -175.662870 0.019839 0.258259 -0.191577 -16.087300 1.611440 -8.565655 0.667007 10.588961 29.800652 -2.342232 11.857426 -13.933868 0.144100 -2.446400 -6.741100 -0.670368 -0.248257 -0.440222 13.274175 0.489581 -10.380444 -1.434628 -11.092201 31.356200 5.547239 -20.744468 -11.386728 -1.435100 7.574100 -21.427700 -2.931822 0.747976 4.013034 0.353659 0.902593 -2.223825 3.136430 -0.023355 6.029023 -10.036458 -3.457895 -3.290513 4.217451 -4.988958 6.301034 7.523100 -1.424000 -2.425500 0.298691 1.306794 2.005419 -91.722655 -3.909005 16.967765 4.236491 -18.728729 -1.711393 -0.665537 -0.378215 7.888032 16.519100 23.097199 7.006100 -7.125000 0.000000 0.000000 -12.690700 54.001200 -2.843100 -2.758840 -0.747314 1.556972 87.688878 2.430405 10.881698 -9.011424 22.758172 -3.273024 0.221512 -1.206833 13.966732 -17.320407 23.887418 -7.736400 7.125000 0.000000 0.000000 7.133400 -4.074400 6.661400 
36.502048 17.309247 0.258744 174.725174 -65.338333 -175.512818 0.022373 0.263277 -0.186938 -16.154498 1.724862 -8.557475 0.674198 10.594336 29.823868 -2.295876 11.701224 -13.882526 0.140400 -2.415000 -6.654100 -0.687130 -0.252704 -0.440056 13.201688 0.449464 -10.380139 -1.446777 -11.113143 31.455846 5.439911 -20.456423 -11.617491 -1.325000 7.289800 -20.576900 -3.043810 0.744402 4.111341 0.353829 0.894694 -2.227522 3.165608 -0.034855 5.987434 -9.959646 -3.482720 -3.321226 4.141978 -4.997195 6.388348 7.425800 -1.446700 -2.346400 0.323937 1.291461 1.995214 -91.773604 -3.888500 16.828397 4.205549 -18.690292 -1.706534 -0.664925 -0.373335 7.791670 16.545769 23.056192 7.004800 -7.125000 0.000000 0.000000 -12.641800 53.959400 -2.818900 -2.743040 -0.736851 1.543762 87.685491 2.409032 10.969648 -9.022722 22.760708 -3.273462 0.225173 -1.211341 13.911099 -17.406028 23.936079 -7.792300 7.125000 0.000000 0.000000 7.083300 -4.007200 6.622800 
